<svg width="188" height="131" viewBox="0 0 188 131" fill="none" xmlns="http://www.w3.org/2000/svg">
<path d="M177.362 0H10.6385C4.76302 0 0 5.06864 0 11.3211V119.679C0 125.931 4.76302 131 10.6385 131H177.362C183.237 131 188 125.931 188 119.679V11.3211C188 5.06864 183.237 0 177.362 0Z" fill="#190041"/>
<path d="M74.9996 99.3799H11.6596C10.2236 99.3799 9.05957 100.544 9.05957 101.98V102.56C9.05957 103.996 10.2236 105.16 11.6596 105.16H74.9996C76.4355 105.16 77.5996 103.996 77.5996 102.56V101.98C77.5996 100.544 76.4355 99.3799 74.9996 99.3799Z" fill="#83BAA0"/>
<path d="M62.8696 110.52H11.6596C10.2236 110.52 9.05957 111.684 9.05957 113.12V113.7C9.05957 115.136 10.2236 116.3 11.6596 116.3H62.8696C64.3055 116.3 65.4696 115.136 65.4696 113.7V113.12C65.4696 111.684 64.3055 110.52 62.8696 110.52Z" fill="#83BAA0"/>
<path d="M173.87 109.47H149.3C147.643 109.47 146.3 110.813 146.3 112.47V116.53C146.3 118.187 147.643 119.53 149.3 119.53H173.87C175.527 119.53 176.87 118.187 176.87 116.53V112.47C176.87 110.813 175.527 109.47 173.87 109.47Z" fill="#0B5243"/>
<path d="M13.2197 72.67C13.2197 72.67 30.9697 46.07 42.9997 46.07C55.7997 46.07 63.8797 58.44 75.3297 58.44C88.6397 58.44 95.4997 35.74 110.86 35.74C126.22 35.74 133.83 48.76 147.65 48.76C161.47 48.76 171.75 24.85 171.75 24.85" stroke="#0B5243" stroke-width="0.75" stroke-linecap="round" stroke-linejoin="round"/>
<path d="M14.5001 75.63C16.643 75.63 18.3801 73.8929 18.3801 71.75C18.3801 69.6071 16.643 67.87 14.5001 67.87C12.3572 67.87 10.6201 69.6071 10.6201 71.75C10.6201 73.8929 12.3572 75.63 14.5001 75.63Z" fill="#190041"/>
<path d="M43.3302 50.05C45.4731 50.05 47.2102 48.3129 47.2102 46.17C47.2102 44.0272 45.4731 42.29 43.3302 42.29C41.1873 42.29 39.4502 44.0272 39.4502 46.17C39.4502 48.3129 41.1873 50.05 43.3302 50.05Z" fill="#FBF9ED"/>
<path d="M75.4396 61.75C77.5824 61.75 79.3196 60.0129 79.3196 57.87C79.3196 55.7271 77.5824 53.99 75.4396 53.99C73.2967 53.99 71.5596 55.7271 71.5596 57.87C71.5596 60.0129 73.2967 61.75 75.4396 61.75Z" fill="#FBF9ED"/>
<path d="M110.41 39.67C112.553 39.67 114.29 37.9328 114.29 35.79C114.29 33.6471 112.553 31.91 110.41 31.91C108.267 31.91 106.53 33.6471 106.53 35.79C106.53 37.9328 108.267 39.67 110.41 39.67Z" fill="#FBF9ED"/>
<path d="M146.3 52.64C148.443 52.64 150.18 50.9029 150.18 48.76C150.18 46.6171 148.443 44.88 146.3 44.88C144.157 44.88 142.42 46.6171 142.42 48.76C142.42 50.9029 144.157 52.64 146.3 52.64Z" fill="#FBF9ED"/>
<path d="M171.75 28.73C173.893 28.73 175.63 26.9928 175.63 24.85C175.63 22.7071 173.893 20.97 171.75 20.97C169.607 20.97 167.87 22.7071 167.87 24.85C167.87 26.9928 169.607 28.73 171.75 28.73Z" fill="#FBF9ED"/>
</svg>
