<svg width="128" height="89" viewBox="0 0 128 89" fill="none" xmlns="http://www.w3.org/2000/svg">
<path d="M113.9 88.6474L127.182 23.283C127.694 20.7726 125.781 18.4242 123.222 18.4242H118.79C117.066 33.7025 115.193 55.6886 113.294 79.0648L113.887 88.418V88.6474H113.9Z" fill="#0B5243"/>
<path d="M113.388 80.7789L113.9 1H9.13846L10.0545 80.0366L113.388 80.7789Z" fill="white" stroke="#0B5243" stroke-width="0.75" stroke-linecap="round" stroke-linejoin="round"/>
<path d="M113.375 80.401C115.503 50.8028 118.224 21.245 120.582 2.93005H113.9C113.362 28.2768 113.537 54.8383 113.375 80.401Z" fill="#83BAA0" stroke="#0B5243" stroke-width="0.75" stroke-linecap="round" stroke-linejoin="round"/>
<path d="M5.79775 88.6474H113.887L109.118 13.7274C108.97 11.4734 107.057 9.75936 104.807 9.89432L81.8802 11.1495C76.694 11.4329 71.8715 13.9298 68.625 18.0058L65.9443 21.38L6.08065 22.3788C3.10362 22.4327 0.786653 24.9836 1.01565 27.9664L5.78429 88.6609L5.79775 88.6474Z" fill="#FDD500"/>
<path d="M5.78474 88.5799H113.415L108.674 13.9838C108.526 11.7433 106.613 10.0427 104.377 10.1642L81.5438 11.4059C76.3711 11.6893 71.5755 14.1727 68.356 18.2352L65.6889 21.5959L6.08109 22.5946C3.11754 22.6486 0.81405 25.186 1.04305 28.1553L5.7982 88.5799H5.78474Z" stroke="#0B5243" stroke-width="0.75" stroke-linecap="round" stroke-linejoin="round"/>
</svg>
